<svg id="Capa_1" enable-background="new 0 0 512 512" height="512" viewBox="0 0 512 512" width="512" xmlns="http://www.w3.org/2000/svg" xmlns:xlink="http://www.w3.org/1999/xlink"><linearGradient id="SVGID_1_" gradientUnits="userSpaceOnUse" x1="256" x2="256" y1="481" y2="31"><stop offset="0" stop-color="#5558ff"/><stop offset="1" stop-color="#00c0ff"/></linearGradient><g><g><path d="m469.008 121h-138.008v-75c0-8.284-6.716-15-15-15h-120c-8.284 0-15 6.716-15 15v75h-138.008c-23.706 0-42.992 19.286-42.992 42.992v274.016c0 23.706 19.286 42.992 42.992 42.992h426.017c23.705 0 42.991-19.286 42.991-42.992v-274.016c0-23.706-19.286-42.992-42.992-42.992zm-258.008-60h90v60h-90zm-90 390h-78.008c-7.164 0-12.992-5.828-12.992-12.992v-274.016c0-7.164 5.828-12.992 12.992-12.992h78.008v90h-15c-8.284 0-15 6.716-15 15v60c0 8.284 6.716 15 15 15h15zm0-180h30v30h-30zm240 180h-210v-120h15c8.284 0 15-6.716 15-15v-60c0-8.284-6.716-15-15-15h-15v-90h210v90h-15c-8.284 0-15 6.716-15 15v60c0 8.284 6.716 15 15 15h15zm0-180h30v30h-30zm121 167.008c0 7.164-5.828 12.992-12.992 12.992h-78.008v-120h15c8.284 0 15-6.716 15-15v-60c0-8.284-6.716-15-15-15h-15v-90h78.008c7.164 0 12.992 5.828 12.992 12.992z" fill="url(#SVGID_1_)"/></g></g></svg>